<svg width="21" height="21" viewBox="0 0 21 21" fill="none" xmlns="http://www.w3.org/2000/svg">
<path d="M1.67993 5.04004V11.13C2.03882 11.2497 2.39666 11.4379 2.71691 11.655C3.48005 10.7472 4.48196 10.29 5.45993 10.29C5.6312 10.2907 5.79823 10.3434 5.93894 10.441L10.1389 13.381C10.4262 13.5801 10.5648 13.9707 10.4672 14.3063C10.3143 14.8229 10.0409 15.3311 9.65993 15.737C9.94889 15.8605 10.2507 15.96 10.4999 15.96C10.9829 15.96 11.5961 15.7841 11.9699 15.54L15.4744 13.0856L12.3437 9.60754C11.6432 10.2367 10.6679 10.92 9.44993 10.92C8.88608 10.92 8.38103 10.6517 8.03243 10.3228C7.68383 9.99415 7.44695 9.61048 7.23842 9.21379C7.06895 8.89879 7.13048 8.47627 7.38269 8.2228C7.38269 8.2228 9.93587 5.6839 9.94868 5.67004C9.56228 5.39578 9.06941 5.25004 8.60993 5.25004C7.03073 5.25004 5.92823 5.74984 3.98993 6.30004L1.67993 5.04004ZM19.3199 5.04004L17.0099 6.30004C15.5305 5.86702 13.9805 5.25235 12.5999 5.25004C11.8307 5.25004 11.1709 5.54467 10.4999 6.30004L7.97993 8.82004C8.35037 9.52438 8.8046 10.08 9.44993 10.08C10.573 10.08 11.7599 9.03004 12.3899 8.40004L16.1699 12.6C17.1078 11.9314 18.275 11.5967 19.3199 11.13V5.04004ZM5.45993 11.13C4.53215 11.13 3.61235 11.6078 2.93993 12.81L6.50993 15.33C6.94064 15.6341 7.22288 15.75 7.76993 15.75C8.65739 15.75 9.40058 14.9457 9.65993 14.07L5.45993 11.13Z" fill="white"/>
</svg>
