<svg width="21" height="21" viewBox="0 0 21 21" fill="none" xmlns="http://www.w3.org/2000/svg">
<g clip-path="url(#clip0_66_163)">
<path d="M10.4999 18.3751C10.3848 18.3757 10.2706 18.3537 10.164 18.3101C10.0574 18.2666 9.96046 18.2024 9.8787 18.1213L3.07995 11.3138C2.22714 10.4521 1.74878 9.2887 1.74878 8.07633C1.74878 6.86395 2.22714 5.70055 3.07995 4.83883C3.93943 3.98177 5.10368 3.50049 6.31745 3.50049C7.53122 3.50049 8.69547 3.98177 9.55495 4.83883L10.4999 5.78383L11.4449 4.83883C12.3044 3.98177 13.4687 3.50049 14.6824 3.50049C15.8962 3.50049 17.0605 3.98177 17.9199 4.83883C18.7728 5.70055 19.2511 6.86395 19.2511 8.07633C19.2511 9.2887 18.7728 10.4521 17.9199 11.3138L11.1212 18.1213C11.0394 18.2024 10.9425 18.2666 10.8359 18.3101C10.7293 18.3537 10.6151 18.3757 10.4999 18.3751Z" fill="white"/>
</g>
<defs>
<clipPath id="clip0_66_163">
<rect width="21" height="21" fill="white"/>
</clipPath>
</defs>
</svg>
