<svg width="22" height="21" viewBox="0 0 22 21" fill="none" xmlns="http://www.w3.org/2000/svg">
<path d="M18.945 6.12502C18.7938 5.86307 18.5773 5.64477 18.3166 5.49141C18.0559 5.33806 17.7599 5.25489 17.4575 5.25002H6.2575L5.75 3.27252C5.69872 3.08163 5.58433 2.91373 5.42544 2.79615C5.26656 2.67857 5.07254 2.61826 4.875 2.62502H3.125C2.89294 2.62502 2.67038 2.71721 2.50628 2.88131C2.34219 3.0454 2.25 3.26796 2.25 3.50002C2.25 3.73209 2.34219 3.95465 2.50628 4.11874C2.67038 4.28284 2.89294 4.37502 3.125 4.37502H4.21L6.625 13.3525C6.67627 13.5434 6.79067 13.7113 6.94956 13.8289C7.10844 13.9465 7.30246 14.0068 7.5 14H15.375C15.5366 13.9995 15.6949 13.9543 15.8323 13.8694C15.9698 13.7844 16.081 13.6631 16.1537 13.5188L19.0237 7.77878C19.1481 7.51804 19.2061 7.23056 19.1923 6.942C19.1786 6.65343 19.0936 6.37276 18.945 6.12502Z" fill="white"/>
<path d="M7.0625 18.375C7.78737 18.375 8.375 17.7874 8.375 17.0625C8.375 16.3376 7.78737 15.75 7.0625 15.75C6.33763 15.75 5.75 16.3376 5.75 17.0625C5.75 17.7874 6.33763 18.375 7.0625 18.375Z" fill="white"/>
<path d="M15.8125 18.375C16.5374 18.375 17.125 17.7874 17.125 17.0625C17.125 16.3376 16.5374 15.75 15.8125 15.75C15.0876 15.75 14.5 16.3376 14.5 17.0625C14.5 17.7874 15.0876 18.375 15.8125 18.375Z" fill="white"/>
</svg>
